<?xml version="1.0" encoding="UTF-8"?>
<svg version="1.1" xmlns="http://www.w3.org/2000/svg" width="512" height="512" viewBox="0 0 512 512">
  <!-- 1. 딥 차콜/다크 바탕 (#0F172A) -->
  <rect width="512" height="512" rx="100" ry="100" fill="#0F172A" />

  <!-- 2. 꽉 찬 비율의 에메랄드 비취색 로고 (#34D399) -->
  <g transform="translate(-250, 565) scale(0.076, -0.076)" fill="#34D399" stroke="none">
    <path d="M8736 5644 c-38 -41 -65 -79 -60 -83 84 -72 414 -374 411 -377 -2 -2
    -498 -4 -1103 -4 -1191 -1 -1215 -2 -1385 -56 -304 -96 -518 -237 -710 -471
    -149 -180 -263 -429 -305 -667 -22 -122 -22 -361 0 -484 65 -371 256 -682 554
    -905 l83 -62 -320 -3 -321 -2 0 -108 0 -107 733 -2 c583 -2 754 1 841 12 291
    38 582 188 797 412 196 203 310 421 381 723 29 127 32 411 5 537 -33 157 -68
    259 -133 390 -107 216 -266 408 -433 522 l-75 51 702 0 701 0 -157 -149 c-86
    -82 -182 -174 -211 -205 l-55 -56 70 -73 c38 -41 72 -74 75 -73 16 3 690 660
    687 670 -6 21 -676 646 -693 646 -6 0 -41 -34 -79 -76z m-1580 -699 c104 -17
    260 -70 354 -122 310 -169 522 -459 599 -821 24 -110 24 -165 2 -97 -21 62
    -78 144 -147 212 -115 113 -209 152 -384 160 -99 5 -125 2 -190 -17 -163 -47
    -298 -162 -370 -312 -31 -64 -44 -111 -60 -203 -15 -89 -28 -138 -54 -190
    -129 -260 -407 -389 -676 -314 -109 30 -186 75 -266 155 -87 86 -135 178 -160
    307 -42 213 36 503 198 744 110 162 321 337 503 416 70 31 220 76 295 90 59
    10 272 6 356 -8z m446 -1025 c64 -18 128 -111 128 -185 -1 -35 -36 -99 -73
    -132 -81 -71 -221 -42 -272 58 -20 37 -19 123 1 166 26 54 97 100 159 102 11
    1 36 -4 57 -9z"/>
    <path d="M6294 3905 c-50 -29 -94 -106 -94 -161 0 -50 50 -138 90 -159 52 -27
    112 -30 162 -7 82 36 122 119 104 217 -8 40 -55 99 -97 121 -44 22 -117 18
    -165 -11z"/>
    <path d="M4779 3003 c-52 -49 -213 -196 -357 -328 -144 -131 -262 -243 -262
    -247 0 -4 10 -18 23 -31 25 -27 363 -329 438 -392 26 -22 95 -84 153 -138
    l105 -99 60 61 c33 34 65 69 70 79 8 15 -23 47 -197 206 -114 104 -208 192
    -209 195 -2 3 174 6 390 6 l392 0 3 108 3 107 -402 2 -402 3 199 184 c109 102
    205 193 212 203 12 16 6 26 -55 93 -37 41 -68 75 -69 75 0 0 -43 -39 -95 -87z"/>
  </g>
</svg>
